<svg width="917" height="1195" viewBox="0 0 917 1195" fill="none" xmlns="http://www.w3.org/2000/svg">
<path d="M329.309 989.109C210.422 889.866 103.82 668.626 216.136 544.098C320.271 428.64 374.464 556.538 495.018 482.958C615.572 409.379 556.087 196.502 693.663 144.529C773.516 114.362 870.945 162.941 922.475 273.996C974.006 385.05 979.639 558.581 875.9 778.318C777.907 985.885 658.525 1053 555.009 1061.01C451.493 1069.02 363.842 1017.94 329.309 989.109Z" stroke="#D0E4FF" stroke-width="2.10293" stroke-miterlimit="10"/>
<path d="M861.674 778.199C772.039 968.73 662.622 1031.2 567.347 1039.18C472.693 1046.94 392.249 1000.87 359.683 974.307C249.093 883.502 149.69 679.557 250.268 562.062C343.136 453.573 393.371 565.622 503.901 496.971C507.042 495.005 510.056 492.941 512.95 490.785C591.368 432.427 581.25 306.012 633.939 232.945C648.242 213.11 667.1 197.104 693.493 187.536C769.411 160.014 859.356 205.84 906.438 308.863C953.652 412.456 957.496 574.089 861.674 778.199Z" stroke="#D0E4FF" stroke-width="2.10293" stroke-miterlimit="10"/>
<path d="M847.448 778.079C766.171 951.575 666.719 1009.4 579.685 1017.36C493.893 1024.86 420.586 983.913 390.058 959.505C287.526 877.528 195.555 690.523 284.401 580.025C366.001 478.538 412.474 575.104 512.785 510.983C515.676 509.135 518.444 507.179 521.113 505.154C593.246 450.559 587.496 336.439 637.603 271.153C651.285 253.326 668.984 238.948 693.325 230.542C765.32 205.681 847.768 248.738 890.403 343.731C933.299 439.862 935.354 589.596 847.448 778.079Z" stroke="#D0E4FF" stroke-width="2.10293" stroke-miterlimit="10"/>
<path d="M833.222 777.962C760.303 934.422 670.834 987.854 592.022 995.533C515.11 1003.03 448.965 966.897 420.433 944.704C326.104 871.332 241.416 701.536 318.533 597.99C388.867 503.549 431.471 584.356 521.669 524.996C524.306 523.259 526.833 521.418 529.276 519.524C595.124 468.692 593.763 366.871 641.266 309.362C654.332 293.544 670.873 280.806 693.155 273.549C761.245 251.375 836.179 291.637 874.366 378.598C912.945 467.269 913.212 605.104 833.222 777.962Z" stroke="#D0E4FF" stroke-width="2.10293" stroke-miterlimit="10"/>
<path d="M818.995 777.843C754.688 917.421 674.938 966.128 604.359 973.708C536.316 981.014 477.348 949.875 450.806 929.902C364.703 865.109 287.278 712.612 352.664 615.954C411.741 528.62 450.457 593.577 530.551 539.008C532.936 537.383 535.219 535.657 537.438 533.895C596.999 486.825 600.057 397.309 644.928 347.571C657.385 333.762 672.768 322.683 692.984 316.556C757.188 297.099 824.766 334.437 858.328 413.466C892.774 494.574 891.355 620.784 818.995 777.843Z" stroke="#D0E4FF" stroke-width="2.10293" stroke-miterlimit="10"/>
<path d="M804.768 777.724C748.861 900.29 679.043 944.394 616.696 951.882C557.524 958.99 505.739 932.844 481.181 915.1C403.331 858.851 333.156 723.774 386.796 633.918C434.64 553.771 469.433 602.759 539.435 553.02C541.567 551.505 543.608 549.894 545.601 548.264C598.878 504.956 606.388 427.761 648.592 385.779C660.45 373.983 674.674 364.582 692.816 359.563C753.155 342.87 813.207 377.323 842.292 448.333C872.452 521.968 869.267 636.323 804.768 777.724Z" stroke="#D0E4FF" stroke-width="2.10293" stroke-miterlimit="10"/>
<path d="M790.542 777.606C743.018 883.148 683.15 922.645 629.034 930.057C578.732 936.947 534.14 915.802 511.555 900.298C441.992 852.547 379.075 735.055 420.929 651.882C457.588 579.031 488.39 611.89 548.319 567.033C550.197 565.627 551.997 564.134 553.764 562.635C600.755 523.09 612.764 458.244 652.255 423.988C663.526 414.211 676.588 406.509 692.647 402.57C749.148 388.71 801.636 420.218 826.255 483.202C852.12 549.368 847.166 651.852 790.542 777.606Z" stroke="#D0E4FF" stroke-width="2.10293" stroke-miterlimit="10"/>
<path d="M776.315 777.487C737.152 865.992 687.258 900.871 641.371 908.232C599.94 914.878 562.553 898.74 541.929 885.497C480.696 846.174 421.532 744.523 455.061 669.846C483.677 606.108 507.315 620.949 557.203 581.045C558.827 579.746 560.384 578.373 561.928 577.005C602.634 541.221 619.195 488.777 655.919 462.196C666.618 454.452 678.512 448.471 692.478 445.576C745.17 434.652 790.05 463.123 810.22 518.069C831.771 576.78 825.043 667.368 776.315 777.487Z" stroke="#D0E4FF" stroke-width="2.10293" stroke-miterlimit="10"/>
<path d="M762.089 777.369C731.25 848.815 691.363 879.055 653.709 886.407C621.145 892.765 590.983 881.648 572.304 870.696C519.451 839.705 471.338 758.093 489.193 687.81C503.884 629.98 526.188 629.91 566.086 595.058C567.454 593.863 568.772 592.611 570.09 591.375C604.511 559.354 625.682 519.403 659.582 500.405C669.726 494.721 680.443 490.481 692.309 488.584C741.221 480.762 778.437 506.041 794.183 552.937C811.398 604.205 802.883 682.859 762.089 777.369Z" stroke="#D0E4FF" stroke-width="2.10293" stroke-miterlimit="10"/>
<path d="M747.863 777.25C725.291 831.604 695.458 857.15 666.046 864.582C642.34 870.572 619.435 864.5 602.678 855.894C558.266 833.086 518.022 769.775 523.325 705.774C527.483 655.591 544.965 638.732 574.97 609.07C576.078 607.975 577.16 606.85 578.254 605.745C606.388 577.486 632.21 550.18 663.246 538.614C672.846 535.036 682.377 532.549 692.14 531.59C737.292 527.154 766.784 548.976 778.147 587.804C790.977 631.65 780.645 698.307 747.863 777.25Z" stroke="#D0E4FF" stroke-width="2.10293" stroke-miterlimit="10"/>
<path d="M557.457 723.739C551.306 679.164 564.567 644.612 586.417 620.116C608.267 595.619 638.705 581.177 666.909 576.823C724.779 567.889 753.751 586.23 762.111 622.672C770.47 659.114 758.217 713.659 733.637 777.132C709.057 840.604 668.974 855.957 633.054 841.092C597.134 826.228 565.379 781.143 557.457 723.739Z" stroke="#D0E4FF" stroke-width="2.10293" stroke-miterlimit="10"/>
</svg>
